# xmcd
#
# Track frame offsets:
#	150
#	15535
#	36279
#	52401
#	69869
#	85432
#	94186
#	108504
#	125052
#	133129
#	145968
#
# Disc length: 2128 seconds
# Revision: 0
# Processed by: cddbd v1.5.2PL0 Copyright (c) Steve Scherf et al.
# Submitted via: dBpowerAMP V12.0
#
DISCID=a4084e0b
DTITLE=Cotton Jones - Tall Hours In The Glowstream
DYEAR=2010
DGENRE=
TTITLE0=Sail Of The Silver Morning
TTITLE1=Somehow To Keep It Going
TTITLE2=Glorylight And Christie
TTITLE3=Man Climbs Out Of The Winter
TTITLE4=Song And Numbers
TTITLE5=Soft Mountain Shake
TTITLE6=Place At The End Of The Street
TTITLE7=More Songs For Margaret
TTITLE8=Goethe Nayburs
TTITLE9=Dream On Columbia Street
TTITLE10=No Things I Need (Like Some Time Ago)
EXTD=
EXTT0=
EXTT1=
EXTT2=
EXTT3=
EXTT4=
EXTT5=
EXTT6=
EXTT7=
EXTT8=
EXTT9=
EXTT10=
PLAYORDER=
